<svg xmlns="http://www.w3.org/2000/svg">
  <defs>
    <!-- Icons go here -->
    <symbol id="icon-glasses" viewBox="0 0 32 40"> <svg xmlns="http://www.w3.org/2000/svg" xmlns:xlink="http://www.w3.org/1999/xlink" xmlns:serif="http://www.serif.com/" viewBox="0 0 32 40" version="1.1" xml:space="preserve" style="" x="0px" y="0px" fill-rule="evenodd" clip-rule="evenodd" stroke-linejoin="round" stroke-miterlimit="2"><path d="M31,17.25c0,-0.552 -0.448,-1 -1,-1l-28,-0c-0.552,-0 -1,0.448 -1,1l0,11c0,0.552 0.448,1 1,1l11,0c0.197,0 0.39,-0.058 0.555,-0.168l2.445,-1.63c0,-0 2.445,1.63 2.445,1.63c0.165,0.11 0.358,0.168 0.555,0.168l11,-0c0.552,0 1,-0.448 1,-1l0,-11Zm-2,1l0,9c0,-0 -9.697,0 -9.697,0c-0,0 -2.748,-1.832 -2.748,-1.832c-0.336,-0.224 -0.774,-0.224 -1.11,-0l-2.748,1.832c0,0 -9.697,-0 -9.697,-0c0,0 0,-9 0,-9l26,-0Z"/><path d="M14,20.25c0,-0.552 -0.448,-1 -1,-1l-8,-0c-0.552,-0 -1,0.448 -1,1l0,5c0,0.552 0.448,1 1,1l8,-0c0.552,-0 1,-0.448 1,-1l0,-5Zm-2,1l0,3c0,-0 -6,-0 -6,-0c0,-0 0,-3 0,-3l6,0Z"/><path d="M28,20.25c0,-0.552 -0.448,-1 -1,-1l-8,-0c-0.552,-0 -1,0.448 -1,1l0,5c0,0.552 0.448,1 1,1l8,-0c0.552,-0 1,-0.448 1,-1l0,-5Zm-2,1l0,3c0,-0 -6,-0 -6,-0c0,-0 0,-3 0,-3l6,0Z"/><path d="M9.454,8.051c0.03,-0.097 0.046,-0.199 0.046,-0.301l0,-4c0,-0.467 -0.323,-0.871 -0.778,-0.975c-0.454,-0.104 -0.921,0.121 -1.123,0.541l-6.5,13.5c-0.149,0.31 -0.129,0.675 0.054,0.966c0.183,0.291 0.503,0.468 0.847,0.468l3.5,0c0.436,0 0.822,-0.283 0.954,-0.699l3,-9.5Zm-2.446,1.103l-3.417,7.096c0,0 1.176,-0 1.176,0l2.241,-7.096Z"/><path d="M22.5,7.75c0,0.102 0.016,0.204 0.046,0.301l3,9.5c0.132,0.416 0.518,0.699 0.954,0.699l3.5,-0c0.344,-0 0.664,-0.177 0.847,-0.468c0.183,-0.291 0.203,-0.656 0.054,-0.966l-6.5,-13.5c-0.202,-0.42 -0.669,-0.645 -1.123,-0.541c-0.455,0.104 -0.778,0.508 -0.778,0.975l0,4Zm2.492,1.404l2.241,7.096c-0,-0 1.176,-0 1.176,0l-3.417,-7.096Z"/><text x="0" y="47" fill="#000000" font-size="5px" font-weight="bold" font-family="'Helvetica Neue', Helvetica, Arial-Unicode, Arial, Sans-serif">Created by Singlar</text><text x="0" y="52" fill="#000000" font-size="5px" font-weight="bold" font-family="'Helvetica Neue', Helvetica, Arial-Unicode, Arial, Sans-serif">from the Noun Project</text></svg> </symbol>
    <symbol id="icon-video-camera" viewBox="0 0 32 40"> <svg xmlns="http://www.w3.org/2000/svg" xmlns:xlink="http://www.w3.org/1999/xlink" xmlns:serif="http://www.serif.com/" viewBox="0 0 32 40" version="1.1" xml:space="preserve" style="" x="0px" y="0px" fill-rule="evenodd" clip-rule="evenodd" stroke-linejoin="round" stroke-miterlimit="2"><path d="M23,14.5c0,-0.552 -0.448,-1 -1,-1l-20,-0c-0.552,0 -1,0.448 -1,1l0,13c0,0.552 0.448,1 1,1l20,-0c0.552,0 1,-0.448 1,-1l0,-13Zm0.5,1.369l0,10.262l6.149,2.305c0.307,0.115 0.651,0.073 0.921,-0.114c0.269,-0.187 0.43,-0.494 0.43,-0.822l0,-13c0,-0.328 -0.161,-0.635 -0.43,-0.822c-0.27,-0.187 -0.614,-0.229 -0.921,-0.114l-6.149,2.305Zm-6,3.181c0,-0.552 -0.448,-1 -1,-1l-9,-0c-0.552,-0 -1,0.448 -1,1l-0,3.9c-0,0.552 0.448,1 1,1l9,-0c0.552,-0 1,-0.448 1,-1l0,-3.9Zm-15.373,-6.05l9.746,-0c0.166,-0.232 0.317,-0.475 0.45,-0.73c0.096,0.254 0.212,0.498 0.347,0.73l8.66,-0c0.426,-0.736 0.67,-1.59 0.67,-2.5c-0,-2.76 -2.24,-5 -5,-5c-1.782,0 -3.348,0.934 -4.233,2.339c-0.721,-2.504 -3.031,-4.339 -5.767,-4.339c-3.311,0 -6,2.689 -6,6c-0,1.306 0.418,2.515 1.127,3.5Z"/><text x="0" y="47" fill="#000000" font-size="5px" font-weight="bold" font-family="'Helvetica Neue', Helvetica, Arial-Unicode, Arial, Sans-serif">Created by Singlar</text><text x="0" y="52" fill="#000000" font-size="5px" font-weight="bold" font-family="'Helvetica Neue', Helvetica, Arial-Unicode, Arial, Sans-serif">from the Noun Project</text></svg> </symbol>
    <symbol id="icon-reel" viewBox="0 0 32 40"> <svg xmlns="http://www.w3.org/2000/svg" xmlns:xlink="http://www.w3.org/1999/xlink" xmlns:serif="http://www.serif.com/" viewBox="0 0 32 40" version="1.1" xml:space="preserve" style="" x="0px" y="0px" fill-rule="evenodd" clip-rule="evenodd" stroke-linejoin="round" stroke-miterlimit="2"><path d="M13.5,4c-6.623,-0 -12,5.377 -12,12c-0,6.623 5.377,12 12,12c6.623,0 12,-5.377 12,-12c0,-6.623 -5.377,-12 -12,-12Zm10.355,19l4.145,0c0.334,-0 0.647,0.167 0.832,0.445l2,3c0.205,0.307 0.224,0.702 0.05,1.027c-0.174,0.325 -0.513,0.528 -0.882,0.528l-12.991,0c2.823,-0.825 5.233,-2.62 6.846,-5Zm-12.263,-5.092c-1.278,-1.278 -3.354,-1.278 -4.633,-0c-1.278,1.278 -1.278,3.354 0,4.633c1.279,1.278 3.355,1.278 4.633,-0c1.278,-1.279 1.278,-3.355 0,-4.633Zm8.449,4.633c1.278,-1.279 1.278,-3.355 -0,-4.633c-1.279,-1.278 -3.355,-1.278 -4.633,-0c-1.278,1.278 -1.278,3.354 -0,4.633c1.278,1.278 3.354,1.278 4.633,-0Zm-9.863,-3.219c0.498,0.498 0.498,1.307 -0,1.805c-0.498,0.497 -1.307,0.497 -1.805,-0c-0.497,-0.498 -0.497,-1.307 0,-1.805c0.498,-0.498 1.307,-0.498 1.805,0Zm8.449,1.805c-0.498,0.497 -1.307,0.497 -1.805,-0c-0.498,-0.498 -0.498,-1.307 0,-1.805c0.498,-0.498 1.307,-0.498 1.805,0c0.497,0.498 0.497,1.307 -0,1.805Zm-4.42,-4.42c0.39,-0.39 0.39,-1.024 0,-1.414c-0.39,-0.39 -1.024,-0.39 -1.414,-0c-0.39,0.39 -0.39,1.024 -0,1.414c0.39,0.39 1.024,0.39 1.414,0Zm5.834,-7.248c-1.279,-1.278 -3.355,-1.278 -4.633,0c-1.278,1.279 -1.278,3.355 -0,4.633c1.278,1.278 3.354,1.278 4.633,0c1.278,-1.278 1.278,-3.354 -0,-4.633Zm-8.449,4.633c1.278,-1.278 1.278,-3.354 0,-4.633c-1.278,-1.278 -3.354,-1.278 -4.633,0c-1.278,1.279 -1.278,3.355 0,4.633c1.279,1.278 3.355,1.278 4.633,0Zm7.035,-3.219c0.497,0.498 0.497,1.307 -0,1.805c-0.498,0.498 -1.307,0.498 -1.805,-0c-0.498,-0.498 -0.498,-1.307 0,-1.805c0.498,-0.497 1.307,-0.497 1.805,0Zm-8.449,1.805c-0.498,0.498 -1.307,0.498 -1.805,-0c-0.497,-0.498 -0.497,-1.307 0,-1.805c0.498,-0.497 1.307,-0.497 1.805,0c0.498,0.498 0.498,1.307 -0,1.805Z"/><text x="0" y="47" fill="#000000" font-size="5px" font-weight="bold" font-family="'Helvetica Neue', Helvetica, Arial-Unicode, Arial, Sans-serif">Created by Singlar</text><text x="0" y="52" fill="#000000" font-size="5px" font-weight="bold" font-family="'Helvetica Neue', Helvetica, Arial-Unicode, Arial, Sans-serif">from the Noun Project</text></svg> </symbol>
  </defs>
</svg>