<svg xmlns="http://www.w3.org/2000/svg" xmlns:xlink="http://www.w3.org/1999/xlink" xmlns:serif="http://www.serif.com/" viewBox="0 0 32 40" version="1.1" xml:space="preserve" style="" x="0px" y="0px" fill-rule="evenodd" clip-rule="evenodd" stroke-linejoin="round" stroke-miterlimit="2"><path d="M23,14.5c0,-0.552 -0.448,-1 -1,-1l-20,-0c-0.552,0 -1,0.448 -1,1l0,13c0,0.552 0.448,1 1,1l20,-0c0.552,0 1,-0.448 1,-1l0,-13Zm-2,1l0,11c-0,0 -18,-0 -18,-0c0,0 0,-11 0,-11l18,-0Z"/><path d="M17.5,19.05c0,-0.552 -0.448,-1 -1,-1l-9,-0c-0.552,-0 -1,0.448 -1,1l-0,3.9c-0,0.552 0.448,1 1,1l9,-0c0.552,-0 1,-0.448 1,-1l0,-3.9Zm-2,1l0,1.9c-0,-0 -7,-0 -7,-0c-0,-0 -0,-1.9 -0,-1.9l7,0Z"/><path d="M31,14.5c0,-0.328 -0.161,-0.635 -0.43,-0.822c-0.27,-0.187 -0.614,-0.229 -0.921,-0.114l-8,3c-0.39,0.146 -0.649,0.519 -0.649,0.936l0,7c0,0.417 0.259,0.79 0.649,0.936l8,3c0.307,0.115 0.651,0.073 0.921,-0.114c0.269,-0.187 0.43,-0.494 0.43,-0.822l0,-13Zm-2,1.443l0,10.114c-0,-0 -6,-2.25 -6,-2.25c0,-0 0,-5.614 0,-5.614l6,-2.25Z"/><path d="M7,3.5c-3.311,0 -6,2.689 -6,6c-0,3.311 2.689,6 6,6c3.311,-0 6,-2.689 6,-6c-0,-3.311 -2.689,-6 -6,-6Zm-0,2c2.208,0 4,1.792 4,4c-0,2.208 -1.792,4 -4,4c-2.208,-0 -4,-1.792 -4,-4c-0,-2.208 1.792,-4 4,-4Z"/><path d="M17,5.5c-2.76,0 -5,2.24 -5,5c0,2.76 2.24,5 5,5c2.76,0 5,-2.24 5,-5c-0,-2.76 -2.24,-5 -5,-5Zm0,2c1.656,0 3,1.344 3,3c-0,1.656 -1.344,3 -3,3c-1.656,0 -3,-1.344 -3,-3c0,-1.656 1.344,-3 3,-3Z"/><text x="0" y="47" fill="#000000" font-size="5px" font-weight="bold" font-family="'Helvetica Neue', Helvetica, Arial-Unicode, Arial, Sans-serif">Created by Singlar</text><text x="0" y="52" fill="#000000" font-size="5px" font-weight="bold" font-family="'Helvetica Neue', Helvetica, Arial-Unicode, Arial, Sans-serif">from the Noun Project</text></svg>