<svg xmlns="http://www.w3.org/2000/svg" xmlns:xlink="http://www.w3.org/1999/xlink" xmlns:serif="http://www.serif.com/" viewBox="0 0 32 40" version="1.1" xml:space="preserve" style="" x="0px" y="0px" fill-rule="evenodd" clip-rule="evenodd" stroke-linejoin="round" stroke-miterlimit="2"><path d="M7.322,11.969c0.096,0.316 0.147,0.652 0.147,1c-0,1.914 -1.554,3.469 -3.469,3.469c-0.348,-0 -0.683,-0.052 -1,-0.147l0,11.678c0,0.552 0.448,1 1,1l26,-0c0.552,-0 1,-0.448 1,-1l-0,-15c0,-0.552 -0.448,-1 -1,-1l-22.678,-0Zm1.178,13l7.5,-0c0.552,-0 1,-0.448 1,-1c-0,-0.552 -0.448,-1 -1,-1l-7.5,-0c-0.552,-0 -1,0.448 -1,1c-0,0.552 0.448,1 1,1Zm0,-3.5l17,-0c0.552,-0 1,-0.448 1,-1c0,-0.552 -0.448,-1 -1,-1l-17,-0c-0.552,-0 -1,0.448 -1,1c0,0.552 0.448,1 1,1Zm-0,-3.5l17,-0c0.552,-0 1,-0.448 1,-1c-0,-0.552 -0.448,-1 -1,-1l-17,-0c-0.552,-0 -1,0.448 -1,1c-0,0.552 0.448,1 1,1Zm-4.5,-8c-1.656,-0 -3,1.344 -3,3c0,1.656 1.344,3 3,3c1.656,-0 3,-1.344 3,-3c0,-1.656 -1.344,-3 -3,-3Zm-0.146,2.011l0.173,-0.011c0.025,0.001 0.051,0.003 0.076,0.005c0.499,0.051 0.89,0.471 0.897,0.982l0,0.013c0,0.015 -0,0.03 -0.001,0.045l-0.001,0.013c-0.001,0.025 -0.003,0.05 -0.007,0.075l-0.002,0.014c-0.007,0.051 -0.019,0.102 -0.034,0.15l-0.008,0.023l-0.008,0.023l-0.008,0.023l-0.002,0.005c-0.042,0.104 -0.1,0.199 -0.173,0.283c-0.008,0.009 -0.016,0.018 -0.024,0.027l-0.008,0.009c-0.015,0.015 -0.031,0.031 -0.047,0.045l-0.014,0.013l-0.009,0.008c-0.025,0.022 -0.051,0.042 -0.078,0.061c-0.075,0.053 -0.158,0.096 -0.246,0.127c-0.038,0.013 -0.077,0.024 -0.116,0.033l-0.025,0.005l-0.024,0.004l-0.025,0.004c-0.039,0.006 -0.078,0.009 -0.117,0.01l-0.023,-0c-0.552,-0 -1,-0.448 -1,-1c0,-0.502 0.371,-0.919 0.854,-0.989Zm3.289,-0.48c-0.256,-0.547 -0.652,-1.017 -1.14,-1.363l0.364,-1.588l-1.999,0.313l0.105,0.67c-0.155,-0.021 -0.313,-0.032 -0.473,-0.032c-0.538,-0 -1.048,0.123 -1.503,0.342l-0.26,-1.658c-0.085,-0.545 0.288,-1.057 0.833,-1.143l25.686,-4.029c0.546,-0.086 1.057,0.287 1.143,0.833l0.775,4.94c0.085,0.545 -0.287,1.057 -0.833,1.142l-10.008,1.573l-12.69,0Zm5.303,-3.905l-0.721,3.154l1.823,-0.286l0.722,-3.154l-1.824,0.286Zm7.904,-1.24l-0.722,3.153l1.824,-0.287l0.721,-3.152l-1.823,0.286Zm7.797,-0.775l-0.615,2.686l1.011,-0.159l-0.396,-2.527Z"/><text x="0" y="47" fill="#000000" font-size="5px" font-weight="bold" font-family="'Helvetica Neue', Helvetica, Arial-Unicode, Arial, Sans-serif">Created by Singlar</text><text x="0" y="52" fill="#000000" font-size="5px" font-weight="bold" font-family="'Helvetica Neue', Helvetica, Arial-Unicode, Arial, Sans-serif">from the Noun Project</text></svg>