<svg xmlns="http://www.w3.org/2000/svg" xmlns:xlink="http://www.w3.org/1999/xlink" xmlns:serif="http://www.serif.com/" viewBox="0 0 32 40" version="1.1" xml:space="preserve" style="" x="0px" y="0px" fill-rule="evenodd" clip-rule="evenodd" stroke-linejoin="round" stroke-miterlimit="2"><path d="M31,17.25c0,-0.552 -0.448,-1 -1,-1l-28,-0c-0.552,-0 -1,0.448 -1,1l0,11c0,0.552 0.448,1 1,1l11,0c0.197,0 0.39,-0.058 0.555,-0.168l2.445,-1.63c0,-0 2.445,1.63 2.445,1.63c0.165,0.11 0.358,0.168 0.555,0.168l11,-0c0.552,0 1,-0.448 1,-1l0,-11Zm-2,1l0,9c0,-0 -9.697,0 -9.697,0c-0,0 -2.748,-1.832 -2.748,-1.832c-0.336,-0.224 -0.774,-0.224 -1.11,-0l-2.748,1.832c0,0 -9.697,-0 -9.697,-0c0,0 0,-9 0,-9l26,-0Z"/><path d="M14,20.25c0,-0.552 -0.448,-1 -1,-1l-8,-0c-0.552,-0 -1,0.448 -1,1l0,5c0,0.552 0.448,1 1,1l8,-0c0.552,-0 1,-0.448 1,-1l0,-5Zm-2,1l0,3c0,-0 -6,-0 -6,-0c0,-0 0,-3 0,-3l6,0Z"/><path d="M28,20.25c0,-0.552 -0.448,-1 -1,-1l-8,-0c-0.552,-0 -1,0.448 -1,1l0,5c0,0.552 0.448,1 1,1l8,-0c0.552,-0 1,-0.448 1,-1l0,-5Zm-2,1l0,3c0,-0 -6,-0 -6,-0c0,-0 0,-3 0,-3l6,0Z"/><path d="M9.454,8.051c0.03,-0.097 0.046,-0.199 0.046,-0.301l0,-4c0,-0.467 -0.323,-0.871 -0.778,-0.975c-0.454,-0.104 -0.921,0.121 -1.123,0.541l-6.5,13.5c-0.149,0.31 -0.129,0.675 0.054,0.966c0.183,0.291 0.503,0.468 0.847,0.468l3.5,0c0.436,0 0.822,-0.283 0.954,-0.699l3,-9.5Zm-2.446,1.103l-3.417,7.096c0,0 1.176,-0 1.176,0l2.241,-7.096Z"/><path d="M22.5,7.75c0,0.102 0.016,0.204 0.046,0.301l3,9.5c0.132,0.416 0.518,0.699 0.954,0.699l3.5,-0c0.344,-0 0.664,-0.177 0.847,-0.468c0.183,-0.291 0.203,-0.656 0.054,-0.966l-6.5,-13.5c-0.202,-0.42 -0.669,-0.645 -1.123,-0.541c-0.455,0.104 -0.778,0.508 -0.778,0.975l0,4Zm2.492,1.404l2.241,7.096c-0,-0 1.176,-0 1.176,0l-3.417,-7.096Z"/><text x="0" y="47" fill="#000000" font-size="5px" font-weight="bold" font-family="'Helvetica Neue', Helvetica, Arial-Unicode, Arial, Sans-serif">Created by Singlar</text><text x="0" y="52" fill="#000000" font-size="5px" font-weight="bold" font-family="'Helvetica Neue', Helvetica, Arial-Unicode, Arial, Sans-serif">from the Noun Project</text></svg>