<svg xmlns="http://www.w3.org/2000/svg" xmlns:xlink="http://www.w3.org/1999/xlink" xmlns:serif="http://www.serif.com/" viewBox="0 0 32 40" version="1.1" xml:space="preserve" style="" x="0px" y="0px" fill-rule="evenodd" clip-rule="evenodd" stroke-linejoin="round" stroke-miterlimit="2"><path d="M13.5,4c-6.623,-0 -12,5.377 -12,12c-0,6.623 5.377,12 12,12c6.623,0 12,-5.377 12,-12c0,-6.623 -5.377,-12 -12,-12Zm10.355,19l4.145,0c0.334,-0 0.647,0.167 0.832,0.445l2,3c0.205,0.307 0.224,0.702 0.05,1.027c-0.174,0.325 -0.513,0.528 -0.882,0.528l-12.991,0c2.823,-0.825 5.233,-2.62 6.846,-5Zm-12.263,-5.092c-1.278,-1.278 -3.354,-1.278 -4.633,-0c-1.278,1.278 -1.278,3.354 0,4.633c1.279,1.278 3.355,1.278 4.633,-0c1.278,-1.279 1.278,-3.355 0,-4.633Zm8.449,4.633c1.278,-1.279 1.278,-3.355 -0,-4.633c-1.279,-1.278 -3.355,-1.278 -4.633,-0c-1.278,1.278 -1.278,3.354 -0,4.633c1.278,1.278 3.354,1.278 4.633,-0Zm-9.863,-3.219c0.498,0.498 0.498,1.307 -0,1.805c-0.498,0.497 -1.307,0.497 -1.805,-0c-0.497,-0.498 -0.497,-1.307 0,-1.805c0.498,-0.498 1.307,-0.498 1.805,0Zm8.449,1.805c-0.498,0.497 -1.307,0.497 -1.805,-0c-0.498,-0.498 -0.498,-1.307 0,-1.805c0.498,-0.498 1.307,-0.498 1.805,0c0.497,0.498 0.497,1.307 -0,1.805Zm-4.42,-4.42c0.39,-0.39 0.39,-1.024 0,-1.414c-0.39,-0.39 -1.024,-0.39 -1.414,-0c-0.39,0.39 -0.39,1.024 -0,1.414c0.39,0.39 1.024,0.39 1.414,0Zm5.834,-7.248c-1.279,-1.278 -3.355,-1.278 -4.633,0c-1.278,1.279 -1.278,3.355 -0,4.633c1.278,1.278 3.354,1.278 4.633,0c1.278,-1.278 1.278,-3.354 -0,-4.633Zm-8.449,4.633c1.278,-1.278 1.278,-3.354 0,-4.633c-1.278,-1.278 -3.354,-1.278 -4.633,0c-1.278,1.279 -1.278,3.355 0,4.633c1.279,1.278 3.355,1.278 4.633,0Zm7.035,-3.219c0.497,0.498 0.497,1.307 -0,1.805c-0.498,0.498 -1.307,0.498 -1.805,-0c-0.498,-0.498 -0.498,-1.307 0,-1.805c0.498,-0.497 1.307,-0.497 1.805,0Zm-8.449,1.805c-0.498,0.498 -1.307,0.498 -1.805,-0c-0.497,-0.498 -0.497,-1.307 0,-1.805c0.498,-0.497 1.307,-0.497 1.805,0c0.498,0.498 0.498,1.307 -0,1.805Z"/><text x="0" y="47" fill="#000000" font-size="5px" font-weight="bold" font-family="'Helvetica Neue', Helvetica, Arial-Unicode, Arial, Sans-serif">Created by Singlar</text><text x="0" y="52" fill="#000000" font-size="5px" font-weight="bold" font-family="'Helvetica Neue', Helvetica, Arial-Unicode, Arial, Sans-serif">from the Noun Project</text></svg>