<svg xmlns="http://www.w3.org/2000/svg" xmlns:xlink="http://www.w3.org/1999/xlink" xmlns:serif="http://www.serif.com/" viewBox="0 0 32 40" version="1.1" xml:space="preserve" style="" x="0px" y="0px" fill-rule="evenodd" clip-rule="evenodd" stroke-linejoin="round" stroke-miterlimit="2"><path d="M23,14.5c0,-0.552 -0.448,-1 -1,-1l-20,-0c-0.552,0 -1,0.448 -1,1l0,13c0,0.552 0.448,1 1,1l20,-0c0.552,0 1,-0.448 1,-1l0,-13Zm0.5,1.369l0,10.262l6.149,2.305c0.307,0.115 0.651,0.073 0.921,-0.114c0.269,-0.187 0.43,-0.494 0.43,-0.822l0,-13c0,-0.328 -0.161,-0.635 -0.43,-0.822c-0.27,-0.187 -0.614,-0.229 -0.921,-0.114l-6.149,2.305Zm-6,3.181c0,-0.552 -0.448,-1 -1,-1l-9,-0c-0.552,-0 -1,0.448 -1,1l-0,3.9c-0,0.552 0.448,1 1,1l9,-0c0.552,-0 1,-0.448 1,-1l0,-3.9Zm-15.373,-6.05l9.746,-0c0.166,-0.232 0.317,-0.475 0.45,-0.73c0.096,0.254 0.212,0.498 0.347,0.73l8.66,-0c0.426,-0.736 0.67,-1.59 0.67,-2.5c-0,-2.76 -2.24,-5 -5,-5c-1.782,0 -3.348,0.934 -4.233,2.339c-0.721,-2.504 -3.031,-4.339 -5.767,-4.339c-3.311,0 -6,2.689 -6,6c-0,1.306 0.418,2.515 1.127,3.5Z"/><text x="0" y="47" fill="#000000" font-size="5px" font-weight="bold" font-family="'Helvetica Neue', Helvetica, Arial-Unicode, Arial, Sans-serif">Created by Singlar</text><text x="0" y="52" fill="#000000" font-size="5px" font-weight="bold" font-family="'Helvetica Neue', Helvetica, Arial-Unicode, Arial, Sans-serif">from the Noun Project</text></svg>